<?xml version="1.0" encoding="utf-8"?>
<!-- Uploaded to: SVG Repo, www.svgrepo.com, Generator: SVG Repo Mixer Tools -->
<svg width="800px" height="800px" viewBox="0 0 1024 1024" class="icon"  version="1.1" xmlns="http://www.w3.org/2000/svg"><path d="M519.66976 582.08768m-426.76736 0a426.76736 426.76736 0 1 0 853.53472 0 426.76736 426.76736 0 1 0-853.53472 0Z" fill="#B800FE" /><path d="M519.66976 582.08768m-375.43424 0a375.43424 375.43424 0 1 0 750.86848 0 375.43424 375.43424 0 1 0-750.86848 0Z" fill="#3B0025" /><path d="M518.8864 205.87008c207.77984 0 376.2176 168.43776 376.2176 376.2176s-168.43776 376.2176-376.2176 376.2176V205.87008z" fill="#4E377F" /><path d="M521.96352 203.49952c-24.91904-52.0448 21.24288-126.01344 103.11168-165.21216 81.8688-39.20384 168.43264-28.78976 193.3568 23.24992l-296.46848 141.96224z" fill="#30C03F" /><path d="M521.96352 203.49952c24.91904 52.0448 111.488 62.45376 193.3568 23.24992 81.8688-39.20384 128.03072-113.17248 103.11168-165.21216l-296.46848 141.96224z" fill="#97CF43" /><path d="M348.06784 96.57344c19.24096-29.0304 71.8592-28.032 117.52448 2.23744 45.66528 30.26432 67.09248 78.336 47.85152 107.3664l-165.376-109.60384z" fill="#30C03F" /><path d="M348.06784 96.57344c-19.24096 29.0304 2.18112 77.09696 47.85152 107.3664 45.66528 30.26432 98.28352 31.26784 117.52448 2.23232l-165.376-109.59872z" fill="#97CF43" /><path d="M482.44736 538.17856c4.07552-1.62816 0-41.85088-11.9552-45.11232-11.9552-3.26144-19.26656 5.82656-19.84 10.86976-1.36192 11.96032 24.72448 37.0688 31.7952 34.24256zM483.49696 624.1024c-3.81952-2.16576-32.67584 26.14784-27.7504 37.51936 4.92544 11.37152 16.58368 11.40224 20.87936 8.69888 10.18368-6.40512 13.49632-42.46528 6.87104-46.21824zM455.84896 599.5776c-1.69984-4.04992-41.84576 0.7168-44.89728 12.72832s6.15424 19.16416 11.20768 19.65056c11.97568 1.152 36.6336-25.35936 33.6896-32.37888zM455.55712 561.69984c1.46432-4.13696-31.44704-27.61216-41.78944-20.77696-10.33728 6.8352-8.33024 18.31936-4.92032 22.07744 8.0896 8.9088 44.17024 5.87776 46.70976-1.30048z" fill="#FFFFFF" /></svg>